/* XPM */
static char *result[] = {
/* columns rows colors chars-per-pixel */
"85 83 152 2 ",
"   c black",
".  c #070707",
"X  c #090909",
"o  c #0B0B0B",
"O  c gray5",
"+  c #0E0E0E",
"@  c gray6",
"#  c #131313",
"$  c #151515",
"%  c gray9",
"&  c gray10",
"*  c gray11",
"=  c #1D1D1D",
"-  c gray12",
";  c #202020",
":  c gray13",
">  c #222222",
",  c #232323",
"<  c #272727",
"1  c #2A2A2A",
"2  c #2C2C2C",
"3  c gray18",
"4  c #2F2F2F",
"5  c #313131",
"6  c #343434",
"7  c gray22",
"8  c #393939",
"9  c #3A3A3A",
"0  c gray23",
"q  c #3F3F3F",
"w  c #414141",
"e  c #444444",
"r  c gray27",
"t  c #464646",
"y  c #4B4B4B",
"u  c gray30",
"i  c #4E4E4E",
"p  c gray31",
"a  c #515151",
"s  c #535353",
"d  c gray33",
"f  c #555555",
"g  c #585858",
"h  c #5B5B5B",
"j  c gray36",
"k  c #5D5D5D",
"l  c gray37",
"z  c #5F5F5F",
"x  c #626262",
"c  c gray39",
"v  c #686868",
"b  c DimGray",
"n  c gray42",
"m  c #6C6C6C",
"M  c #6F6F6F",
"N  c gray44",
"B  c #717171",
"V  c #747474",
"C  c gray46",
"Z  c #767676",
"A  c gray47",
"S  c #797979",
"D  c #7C7C7C",
"F  c gray49",
"G  c gray50",
"H  c #808080",
"J  c gray51",
"K  c gray52",
"L  c gray53",
"P  c gray54",
"I  c #8B8B8B",
"U  c #8D8D8D",
"Y  c gray56",
"T  c gray57",
"R  c #939393",
"E  c gray58",
"W  c #959595",
"Q  c gray59",
"!  c #979797",
"~  c gray60",
"^  c gray61",
"/  c gray62",
"(  c #9F9F9F",
")  c gray63",
"_  c #A2A2A2",
"`  c gray64",
"'  c #A4A4A4",
"]  c #A5A5A5",
"[  c gray65",
"{  c #A9A9A9",
"}  c #AAAAAA",
"|  c #ACACAC",
" . c gray68",
".. c #AEAEAE",
"X. c #AFAFAF",
"o. c gray69",
"O. c #B1B1B1",
"+. c gray70",
"@. c #B4B4B4",
"#. c gray71",
"$. c #B6B6B6",
"%. c #B7B7B7",
"&. c gray72",
"*. c gray73",
"=. c #BBBBBB",
"-. c #BCBCBC",
";. c gray74",
":. c gray",
">. c gray75",
",. c #C0C0C0",
"<. c #C1C1C1",
"1. c gray76",
"2. c #C3C3C3",
"3. c gray77",
"4. c #C5C5C5",
"5. c #C6C6C6",
"6. c gray78",
"7. c #C8C8C8",
"8. c gray79",
"9. c #CACACA",
"0. c #CBCBCB",
"q. c gray80",
"w. c #CDCDCD",
"e. c #CECECE",
"r. c gray81",
"t. c gray82",
"y. c LightGray",
"u. c gray83",
"i. c gray84",
"p. c #D8D8D8",
"a. c gray85",
"s. c #DADADA",
"d. c gainsboro",
"f. c #DDDDDD",
"g. c #DFDFDF",
"h. c gray88",
"j. c #E2E2E2",
"k. c gray89",
"l. c gray90",
"z. c gray91",
"x. c #EAEAEA",
"c. c gray93",
"v. c #EFEFEF",
"b. c gray94",
"n. c gray95",
"m. c #F3F3F3",
"M. c #F6F6F6",
"N. c #F9F9F9",
"B. c gray98",
"V. c gray99",
"C. c white",
"Z. c None",
/* pixels */
"Z.Z.Z.Z.Z.Z.Z.Z.Z.Z.Z.Z.Z.Z.Z.Z.Z.Z.Z.Z.Z.Z.Z.Z.Z.Z.Z.Z.Z.Z.Z.Z.Z.Z.Z.Z.Z.Z.Z.Z.Z.Z.Z.Z.Z.Z.g.X.G q q p >.Z.Z.Z.Z.Z.Z.Z.Z.Z.Z.Z.Z.Z.Z.Z.Z.Z.Z.Z.Z.Z.Z.Z.Z.Z.Z.Z.Z.Z.Z.Z.Z.",
"Z.Z.Z.Z.Z.Z.Z.Z.Z.Z.Z.Z.Z.Z.Z.Z.Z.Z.Z.Z.Z.Z.Z.Z.Z.Z.Z.Z.Z.Z.Z.Z.Z.Z.Z.Z.Z.Z.Z.Z.Z.v.>.G p @               q r.Z.Z.Z.Z.Z.Z.Z.Z.Z.Z.Z.Z.Z.Z.Z.Z.Z.Z.Z.Z.Z.Z.Z.Z.Z.Z.Z.Z.Z.Z.",
"Z.Z.Z.Z.Z.Z.Z.Z.Z.Z.Z.Z.Z.Z.Z.Z.Z.Z.Z.Z.Z.Z.Z.Z.Z.Z.Z.Z.Z.Z.Z.Z.Z.Z.Z.Z.v.>.G p -                             z g.Z.Z.Z.Z.Z.Z.Z.Z.Z.Z.Z.Z.Z.Z.Z.Z.Z.Z.Z.Z.Z.Z.Z.Z.Z.Z.Z.Z.",
"Z.Z.Z.Z.Z.Z.Z.Z.Z.Z.Z.Z.Z.Z.Z.Z.Z.Z.Z.Z.Z.Z.Z.Z.Z.Z.Z.Z.Z.Z.Z.Z.>.Y z -                                           z g.Z.Z.Z.Z.Z.Z.Z.Z.Z.Z.Z.Z.Z.Z.Z.Z.Z.Z.Z.Z.Z.Z.Z.Z.Z.Z.",
"Z.Z.Z.Z.Z.Z.Z.Z.Z.Z.Z.Z.Z.Z.Z.Z.Z.Z.Z.Z.Z.Z.Z.Z.Z.Z.Z.>.Y z 4                                 # 5 =   3               G v.Z.Z.Z.Z.Z.Z.Z.Z.Z.Z.Z.Z.Z.Z.Z.Z.Z.Z.Z.Z.Z.Z.Z.Z.",
"Z.Z.Z.Z.Z.Z.Z.Z.Z.Z.Z.Z.Z.Z.Z.Z.Z.Z.Z.Z.Z.Z.r.( z 4                                 X < p m E / / < > *.G %             @ G v.Z.Z.Z.Z.Z.Z.Z.Z.Z.Z.Z.Z.Z.Z.Z.Z.Z.Z.Z.Z.Z.Z.",
"Z.Z.Z.Z.Z.Z.Z.Z.Z.Z.Z.Z.Z.Z.Z.Z.Z.Z.X.M q                                 X < p m P / / / / / / /   r *.*.*.V %             @ G v.Z.Z.Z.Z.Z.Z.Z.Z.Z.Z.Z.Z.Z.Z.Z.Z.Z.Z.Z.Z.",
"Z.Z.Z.Z.Z.Z.Z.Z.Z.Z.Z.Z.Z.Z.Z.Z.Z.z                               < r x P / / / / / / / / / / / Z   V *.*.*.*.*.V o             - ( Z.Z.Z.Z.Z.Z.Z.Z.Z.Z.Z.Z.Z.Z.Z.Z.Z.Z.Z.",
"Z.Z.Z.Z.Z.Z.Z.Z.Z.Z.Z.Z.Z.Z.Z.Z.>.                      3 a V P / / / / / / / / / / / / / / / / g   ! *.*.*.*.*.*...k o             - ( Z.Z.Z.Z.Z.Z.Z.Z.Z.Z.Z.Z.Z.Z.Z.Z.Z.",
"Z.Z.Z.Z.Z.Z.Z.Z.Z.Z.Z.Z.Z.Z.Z.Z.4             > r V ! *.*.*.*.[ / / / / / / / / / / / / / / / / 5 o *.*.*.*.*.*.*.*.*.,.B +             - X.Z.Z.Z.Z.Z.Z.Z.Z.Z.Z.Z.Z.Z.Z.Z.",
"Z.Z.Z.Z.Z.Z.Z.Z.Z.Z.Z.Z.Z.Z.Z.Y           v *.*.*.*.*.*.*.*.*.] / / / / / / / / / / / / / / / / # 3 *.*.*.*.*.*.*.*.*.e.k.u.c               q >.Z.Z.Z.Z.Z.Z.Z.Z.Z.Z.Z.Z.Z.",
"Z.Z.Z.Z.Z.Z.Z.Z.Z.Z.Z.Z.Z.Z.v.@       9 > % ..*.*.*.*.*.*.*.*.] / / / / / / / / / / / / / / / E   k *.*.*.*.*.*.*.*.*.e.k.k.k.5.f               q >.Z.Z.Z.Z.Z.Z.Z.Z.Z.Z.Z.",
"Z.Z.Z.Z.Z.Z.Z.Z.Z.Z.Z.Z.Z.Z.M       . F _ o r *.*.*.*.*.*.*.*.] / / / / / / / / / / / / / / / m   G *.*.*.*.*.*.*.*.*.e.k.k.k.k.k.5.f               p g.Z.Z.Z.Z.Z.Z.Z.Z.Z.",
"Z.Z.Z.Z.Z.Z.Z.Z.Z.Z.Z.Z.Z.r.        7 N o.V   G *.*.*.*.*.*.*.` / / / / / / / / / / / / / / / p   ..*.*.*.*.*.*.*.*.*.e.k.k.k.k.k.k.k.&.7               z v.Z.Z.Z.Z.Z.Z.Z.",
"Z.Z.Z.Z.Z.Z.Z.Z.Z.Z.Z.Z.Z.q       + b N W *.9 o _ *.*.*.*.*.*./ / / / / / / / / / / / / / / / < % *.*.*.*.*.*.*.*.*.*.e.k.k.k.k.k.k.k.k.k.} 7             q Z.Z.Z.Z.Z.Z.Z.",
"Z.Z.Z.Z.Z.Z.Z.Z.Z.Z.Z.Z.X.        u N N V *...% 3 *.*.*.*.*.*./ / / / / / / / / / / / / / / /   r *.*.*.*.*.*.*.*.*.*.e.k.k.k.k.k.k.k.k.k.k.k.} 1           g.Z.Z.Z.Z.Z.Z.",
"Z.Z.Z.Z.Z.Z.Z.Z.Z.Z.Z.v.-       * N N N N / *.I   v *.*.*.*.*./ / / / / / / / / / / / / / / H   v *.*.*.*.*.*.*.*.*.*.e.k.k.k.k.k.k.k.k.k.k.k.k.k.1         X.Z.Z.Z.Z.Z.Z.",
"Z.Z.Z.Z.Z.Z.Z.Z.Z.Z.Z.G         h N N N N J *.*.a   ! *.*.*.*./ / / / / / / / / / / / / / / g   ! *.*.*.*.*.*.*.*.*.*.p.k.k.k.k.k.k.k.k.k.k.k.u.7   %       G Z.Z.Z.Z.Z.Z.",
"Z.Z.Z.Z.Z.Z.Z.Z.Z.Z.g.@       5 N N N N N N | *.*.> > ..*.*.@./ / / / / / / / / / / / / X.w.f   >.*.*.*.*.*.*.*.*.*.*.p.k.k.k.k.k.k.k.k.k.k.&.* o I k       q Z.Z.Z.Z.Z.Z.",
"Z.Z.Z.Z.Z.Z.Z.Z.Z.Z.p       . b N N N N N N I *.*.! o a *.*.+./ / / / / / / / / / / X.t.k.k.1 7 y.*.*.*.*.*.*.*.*.*.*.p.k.k.k.k.k.k.k.k.k.U + 4 8.*.I       @ Z.Z.Z.Z.Z.Z.",
"Z.Z.Z.Z.Z.Z.Z.Z.Z.>.        q N N N N N N N N #.*.*.v   G *.+./ / / / / / / / / %.s.k.k.k.u.  c k.>.*.*.*.*.*.*.*.*.*.p.k.k.k.k.k.k.k.k.f   z v.B.*...        r.Z.Z.Z.Z.Z.",
"Z.Z.Z.Z.Z.Z.Z.Z.Z.4       $ N N N N N N N N N ~ *.*.*.9 o ..+./ / / / / / / %.s.k.u.} B 7 +   1 5.y.*.*.*.*.*.*.*.*.*.p.k.k.k.k.k.k.u.1   ( C.C.C.1.*.>       ( Z.Z.Z.Z.Z.",
"Z.Z.Z.Z.Z.Z.Z.Z.Y         d N N N N N N N N N S *.*.*...o 3 O./ / / / _ ,.@.U f 1       - p M @   f ] *.*.*.*.*.*.*.*.p.k.k.k.k.k.&.+ @ r.C.C.C.C.y.*.r       M Z.Z.Z.Z.Z.",
"Z.Z.Z.Z.Z.Z.Z.v.@       , N N N N N N N N N N N | *.*.*.I   j / E Z s 6 +       < a X.g.C.C.C.7.y   o k ..*.*.*.*.*.*.p.k.k.k.k.G   4 v.C.C.C.C.C.l.*.v       q Z.Z.Z.Z.Z.",
"Z.Z.Z.Z.Z.Z.Z.M       . x N N N N N N N N N N S *.*.*.*.*.a   =       # 5 g Z / / r.C.C.C.C.C.y.t.o.5   o V *.*.*.*.*.p.k.k.u.f   M C.C.C.C.C.C.C.n.*.I         Z.Z.Z.Z.Z.",
"Z.Z.Z.Z.Z.Z.r.        7 N N N N N N N N N N N I *.*.*.*.*.k   : r m P / / / / / ' c.C.C.C.C.b.t.t.t.t.Q ;   % G *.*.*.p.k.1.1 @ ( C.C.C.C.C.C.C.C.C.:.*.        r.Z.Z.Z.Z.",
"Z.Z.Z.Z.Z.Z.q       + b N N N N N N N N N N N _ *.*.*.*._   + ) / / / / / / / / *.V.C.C.C.C.j.t.t.t.t.t.w.D #   3 I *.p.] + - r.C.C.C.C.C.C.C.C.C.C.0.*.>       ( Z.Z.Z.Z.",
"Z.Z.Z.Z.Z.X.        u N N N N N N N N N N N V *.*.*.*.*.3   K / / / / / / / / ) i.C.C.C.C.C.y.t.t.t.t.t.t.t.9.l X   7 S   q v.C.C.C.C.C.C.C.C.C.C.C.d.*.r       M Z.Z.Z.Z.",
"Z.Z.Z.Z.v.-       * N N N N N N N N N N N N I *.*.*.*.G   7 -./ / / / / / / / %.z.C.C.C.C.b.t.t.t.t.t.t.t.t.t.t.*.g     M C.C.C.C.C.C.C.C.C.C.C.C.C.c.*.v       q Z.Z.Z.Z.",
"Z.Z.Z.Z.G         h N N N N N N N N N N N N / *.*.*...%   &._ / / / / / / / / 9.m.C.C.C.C.g.t.t.t.t.t.t.t.t.t.t.t.t.A   >.C.C.C.C.C.C.C.C.C.C.C.C.C.B.*.I         Z.Z.Z.Z.",
"Z.Z.Z.g.@       5 N N N N N N N N N N N N N #.*.*.*.k   c 8./ / / / / / / / O.y.C.C.C.C.V.t.t.t.t.t.t.t.t.t.t.t.t.0.!   Y C.C.C.C.C.C.C.C.C.C.C.C.C.C.5.*.        r.Z.Z.Z.",
"Z.Z.Z.p       . b N N N N N N N N N N N N L *.*.*._   + u.X./ / / / / / / / 9.g.C.C.C.C.c.t.t.t.t.t.t.t.t.t.t.t.t.-.*.  z C.C.C.C.C.C.C.C.C.C.C.C.C.C.y.*.>       Y Z.Z.Z.",
"Z.Z.>.        q N N N N N N N N N N N N N / *.*.*.9   U s./ / / / / / / /  .t.x.C.C.C.C.g.t.t.t.t.t.t.t.t.t.t.t.4.*.*.3 - C.C.C.C.C.C.C.C.C.C.C.C.C.C.l.*.a       z Z.Z.Z.",
"Z.Z.4       $ N N N N N N N N N N N N N N o.*.*.I   1 k.-./ / / / / / / / 3.t.N.C.C.C.V.t.t.t.t.t.t.t.t.t.t.t.q.*.*.*.k   v.C.C.C.C.C.C.C.C.C.C.C.C.C.M.*.V       4 Z.Z.Z.",
"Z.Y         d N N N N N N N N N N N N N F *.*.*.%   } k.[ / / / / / / / } t.i.C.C.C.C.c.t.t.t.t.t.t.t.t.t.t.t.:.*.*.*.T   >.C.C.C.C.C.C.C.C.C.C.C.C.C.C.:.!         Z.Z.Z.",
"v.@       , N N N N N N N N N N N N N N ~ *.*.k   f k.w./ / / / / / / / <.t.l.C.C.C.C.g.t.t.t.t.t.t.t.t.t.t.4.*.*.*.1.g.  G C.C.C.C.C.C.C.C.C.C.C.C.C.C.r.*.        >.Z.Z.",
"G       . x N N N N N N N N N N N N N N o.*._ o + u.k.+./ / / / / / / ' t.t.b.C.C.C.V.t.t.t.t.t.t.t.t.t.t.e.=.*.*.*.l.C.@ p C.C.C.C.C.C.C.C.C.C.C.C.C.C.d.*.3       Y Z.Z.",
"q             $ * , 7 7 u d h N N N N S *.*.9   G k.s./ / / / / / / / ;.t.t.V.C.C.C.c.t.t.t.t.t.t.t.t.t.t.>.*.*.*.:.B.C.q - C.C.C.C.C.C.C.C.C.C.C.C.C.C.c.*.a       z Z.Z.",
"z         7 7 , * $               $ * 2 k a   1 k.k.,./ / / / / / / ) t.t.d.C.C.C.C.g.t.t.t.t.t.t.t.t.t.5.*.*.*.*.d.C.C.G   v.C.C.C.C.C.C.C.C.C.C.C.C.C.C.*.V       4 Z.Z.",
">.        u N N N N N N h d u 7 7 , * $       ^ k.k.[ / / / / / / / %.t.t.z.C.C.C.V.t.t.t.t.t.t.t.t.t.e.=.*.*.*.*.B.C.C.X.  >.C.C.C.C.C.C.C.C.C.C.C.C.C.C.5.!         Z.Z.",
"Z.-       1 N N N N N N N N N N N N N N N x   c k.w./ / / / / / / ) w.t.t.M.C.C.C.c.t.t.t.t.t.t.t.t.t.<.*.*.*.*.y.C.C.C.g.  G C.C.C.C.C.C.C.C.C.C.C.C.C.C.p.*.        >.Z.",
"Z.M         b N N N N N N N N N N N N N N N $ * k.+./ / / / / / / @.t.t.y.C.C.C.C.a.t.t.t.t.t.t.t.t.8.*.*.*.*.*.M.C.C.C.C.- q C.C.C.C.C.C.C.C.C.C.C.C.C.C.l.*.3       Y Z.",
"Z.g.        t N N N N N N N N N N N N N N N t   R / / / / / / / / 9.t.t.j.C.C.C.N.t.t.t.t.t.t.t.t.r.=.*.*.*.*.r.C.C.C.C.C.p @ C.C.C.C.C.C.C.C.C.C.C.C.C.C.M.*.a       p Z.",
"Z.Z.4       * N N N N N N N N N N N N N N N b   q / / / / / / / O.t.t.t.c.C.C.C.x.t.t.t.t.t.t.t.t.<.*.*.*.*.*.c.C.C.C.C.C.G   X.v.C.C.C.C.C.C.C.C.C.C.C.C.C.1.G       - Z.",
"Z.Z.Y         x N N N N N N N N N N N N N N N 1   E / / / / / / 9.t.t.t.N.C.C.C.a.t.t.t.t.t.t.t.0.*.*.*.*.*.0.C.C.C.C.C.C.z         4 q G Y >.g.C.C.C.C.C.C.r._         v.",
"Z.Z.v.        q N N N N N N N N N N N N N N N u   x / / / / / } t.t.t.a.C.C.C.N.t.t.t.t.t.t.t.r.-.*.*.*.*.*.l.C.C.C.C.C.>.  & ^ C v w 6           - q M G >.O.*.o       >.",
"Z.Z.Z.p       $ N N N N N N N N N N N N N N N N + = / / / / / 3.t.t.t.l.C.C.C.x.t.t.t.t.t.t.t.3.*.*.*.*.*.1.C.C.C.C.C.C.4   ^ t.t.t.t.t.t.2.^ J v i 6 O                 G ",
"Z.Z.Z.(         h N N N N N N N N N N N N N N N 5   P / / / } t.t.t.t.m.C.C.C.a.t.t.t.t.t.t.0.*.*.*.*.*.*.h.C.C.C.C.C.Y   w t.t.t.t.t.t.t.t.t.t.t.t.t.t.t.^ L r         G ",
"Z.Z.Z.v.@       5 N N N N N N N N N N N N N N N x   r / / / ;.t.t.t.t.C.C.C.N.t.t.t.t.t.t.t.-.*.*.*.*.*.:.B.C.C.C.C.v.@ O $.t.t.t.t.t.t.t.t.t.t.t.t.t.t.t.t.-.r       @ v.",
"Z.Z.Z.Z.z       + N N N N N N N N N N N N N N N N $ # / / ' t.t.t.t.g.C.C.C.x.t.t.t.t.t.t.4.*.*.*.*.*.*.d.C.C.C.C.C.z   v t.t.t.t.t.t.t.t.t.t.t.t.t.t.t.t.q.I         Y Z.",
"Z.Z.Z.Z.X.        u N N N N N N N N N N N N N N N t   m / ;.t.t.t.t.x.C.C.C.a.t.t.t.t.t.q.*.*.*.*.*.*.*.M.C.C.C.C.>.  = t.t.t.t.t.t.t.t.t.t.t.t.t.t.t.t.t.5.>       - Z.Z.",
"Z.Z.Z.Z.Z.-       1 N N N N N N N N N N N N N N N b   0 ) w.t.t.t.t.M.C.C.N.t.t.t.t.t.t.:.*.*.*.*.*.*.y.C.C.C.C.C.4   >.i.t.t.t.t.t.t.t.t.t.t.t.t.t.t.t.t.m         >.Z.Z.",
"Z.Z.Z.Z.Z.M       . b N N N N N N N N N N N N N N N 1    .t.t.t.t.i.C.C.C.l.t.t.t.t.t.4.*.*.*.*.*.*.*.M.C.C.C.C.Y   p C.l.t.t.t.t.t.t.t.t.t.t.t.t.t.t.t.2.o       p Z.Z.Z.",
"Z.Z.Z.Z.Z.r.        t N N N N N N N N N N N N N N N u   J t.t.t.t.j.C.C.C.i.t.t.t.t.e.=.*.*.*.*.*.*.0.C.C.C.C.v.@ @ g.C.N.t.t.t.t.t.t.t.t.t.t.t.t.t.t.t.h       @ g.Z.Z.Z.",
"Z.Z.Z.Z.Z.Z.4       , N N N N N N N N N N N N N N N N + < w.t.t.t.b.C.C.M.t.t.t.t.t.>.*.*.*.*.*.*.*.c.C.C.C.C.z   G C.C.C.a.t.t.t.t.t.t.t.t.t.t.t.t.t.{         G Z.Z.Z.Z.",
"Z.Z.Z.Z.Z.Z.Y         x N N N N N N N N N N N N N N b +   O v $.t.V.C.C.l.t.t.t.t.5.*.*.*.*.*.*.*.5.C.C.C.C.>.  - C.C.C.C.x.t.t.t.t.t.t.t.t.t.t.t.t.t.6       - v.Z.Z.Z.Z.",
"Z.Z.Z.Z.Z.Z.g.        q N N N N N N N N N N N N N b $ X g <     a r.C.C.i.t.t.t.e.=.*.*.*.*.*.*.*.l.C.C.r.Y -   >.C.C.C.C.N.t.t.t.t.t.t.t.t.t.t.t.t.J         X.Z.Z.Z.Z.Z.",
"Z.Z.Z.Z.Z.Z.Z.p       $ N N N N N N N N N N N N h + X H / / H 0     8 R w.t.t.t.<.*.*.*.*.*.*.*.1.r.M -     #   ( C.C.C.C.C.a.t.t.t.t.t.t.t.t.t.t.2.&       q Z.Z.Z.Z.Z.Z.",
"Z.Z.Z.Z.Z.Z.Z.(         h N N N N N N N N N N h . = P / / / / / P p X   # x ;.8.*.*.*.*.*.*.G r %     > n &.s.q   r.C.C.C.C.x.t.t.t.t.t.t.t.t.t.t.v         g.Z.Z.Z.Z.Z.Z.",
"Z.Z.Z.Z.Z.Z.Z.v.@       5 N N N N N N N N N h . = E / / / / / / / / / x =   X e _ *...G r o     3 v _ *.e.k.k.i.: @ v.C.C.C.N.t.t.t.t.t.t.t.t.t.$.        M Z.Z.Z.Z.Z.Z.Z.",
"Z.Z.Z.Z.Z.Z.Z.Z.z       + N N N N N N N N h . = E / / / / / / / / / / / / Z 5     >       9 V ..*.*.*.-.h.k.k.k.6.X q C.C.C.C.d.t.t.t.t.t.t.t.t.6       @ v.Z.Z.Z.Z.Z.Z.Z.",
"Z.Z.Z.Z.Z.Z.Z.Z.X.        d N N N N N N d . = E / / / / / / / / / / / / / / / P 0   9 G ..*.*.*.*.*.*.y.k.k.k.k.k.)   M C.C.C.c.t.t.t.t.t.t.t.^         ( Z.Z.Z.Z.Z.Z.Z.Z.",
"Z.Z.Z.Z.Z.Z.Z.Z.Z.@       1 N N N N N t   < E / / / / / / / / / / / / / / / / / Z   I *.*.*.*.*.*.*.>.k.k.k.k.k.k.k.G   ( C.C.V.t.t.t.t.t.t.t.&       q Z.Z.Z.Z.Z.Z.Z.Z.Z.",
"Z.Z.Z.Z.Z.Z.Z.Z.Z.M       . N N N N t   0 / / / / / / / / / / / / / / / / / / / Z   I *.*.*.*.*.*.*.y.k.k.k.k.k.k.k.k.f @ r.C.C.g.t.t.t.t.t.v         >.Z.Z.Z.Z.Z.Z.Z.Z.Z.",
"Z.Z.Z.Z.Z.Z.Z.Z.Z.r.        t N N t   0 / / / / / / / / / / / / / / / / / / / / x   _ *.*.*.*.*.*.3.k.k.k.k.k.k.k.k.k.u.1 - v.C.c.t.t.t.t.$.O       z Z.Z.Z.Z.Z.Z.Z.Z.Z.Z.",
"Z.Z.Z.Z.Z.Z.Z.Z.Z.Z.-       , N t   0 / / / / / / / / / / / / / / / / / / / / / p   *.*.*.*.*.*.*.p.k.k.k.k.k.k.k.k.k.k.5.+ q C.V.t.t.t.t.i       @ v.Z.Z.Z.Z.Z.Z.Z.Z.Z.Z.",
"Z.Z.Z.Z.Z.Z.Z.Z.Z.Z.Y         5   0 / / / / / / / / / / / / / / / / / / / / / / p   *.*.*.*.*.*.3.k.k.k.k.k.k.k.k.k.k.k.k.}   M C.g.t.t.^         Y Z.Z.Z.Z.Z.Z.Z.Z.Z.Z.Z.",
"Z.Z.Z.Z.Z.Z.Z.Z.Z.Z.g.          g / / / / / / / / / / / / / / / / / / / / / / / p   *.*.*.*.*.*.p.k.k.k.k.k.k.k.k.k.k.k.k.k.G   ( c.t.t.<       - Z.Z.Z.Z.Z.Z.Z.Z.Z.Z.Z.Z.",
"Z.Z.Z.Z.Z.Z.Z.Z.Z.Z.Z.q         < m / / / / / / / / / / / / / / / / / / / / / / p   *.*.*.*.*.8.k.k.k.k.k.k.k.k.k.k.k.k.k.k.k.f @ r.y.C         >.Z.Z.Z.Z.Z.Z.Z.Z.Z.Z.Z.Z.",
"Z.Z.Z.Z.Z.Z.Z.Z.Z.Z.Z.(             # g E / / / / / / / / / / / / / / / / / / / p   *.*.*.*.*.f.k.k.k.k.k.k.k.k.k.k.k.k.k.k.k.u.1 4 4.O       p Z.Z.Z.Z.Z.Z.Z.Z.Z.Z.Z.Z.Z.",
"Z.Z.Z.Z.Z.Z.Z.Z.Z.Z.Z.Z.G               X 0 P / / / / / / / / / / / / / / / / / p   *.*.*.*.8.k.k.k.k.k.k.k.k.k.k.k.k.k.k.k.k.k.&.+ O       @ g.Z.Z.Z.Z.Z.Z.Z.Z.Z.Z.Z.Z.Z.",
"Z.Z.Z.Z.Z.Z.Z.Z.Z.Z.Z.Z.Z.g.G @               5 Z / / / / / / / / / / / / / / / < 3 *.*.*.-.h.k.k.k.k.k.k.k.k.k.k.k.k.k.k.k.k.^ f *         G Z.Z.Z.Z.Z.Z.Z.Z.Z.Z.Z.Z.Z.Z.",
"Z.Z.Z.Z.Z.Z.Z.Z.Z.Z.Z.Z.Z.Z.Z.v.( -               # x E / / / / / / / / / / / / < 3 *.*.*.e.k.k.k.k.k.k.k.k.k.k.k.k.k.u.U t +             - v.Z.Z.Z.Z.Z.Z.Z.Z.Z.Z.Z.Z.Z.Z.",
"Z.Z.Z.Z.Z.Z.Z.Z.Z.Z.Z.Z.Z.Z.Z.Z.Z.Z.>.p               X p P / / / / / / / / / / < 3 *.*.-.h.k.k.k.k.k.k.k.k.k.k.5.G 7                     X.Z.Z.Z.Z.Z.Z.Z.Z.Z.Z.Z.Z.Z.Z.Z.",
"Z.Z.Z.Z.Z.Z.Z.Z.Z.Z.Z.Z.Z.Z.Z.Z.Z.Z.Z.Z.g.z @               0 Z / / / / / / / / < 3 *.*.e.k.k.k.k.k.k.k.k.&.c 1                       4 r.Z.Z.Z.Z.Z.Z.Z.Z.Z.Z.Z.Z.Z.Z.Z.Z.",
"Z.Z.Z.Z.Z.Z.Z.Z.Z.Z.Z.Z.Z.Z.Z.Z.Z.Z.Z.Z.Z.Z.v.Y -               = x / / / / / / < 3 *.*.*.*.<.3.0.e.Q f *                       p ( g.Z.Z.Z.Z.Z.Z.Z.Z.Z.Z.Z.Z.Z.Z.Z.Z.Z.Z.",
"Z.Z.Z.Z.Z.Z.Z.Z.Z.Z.Z.Z.Z.Z.Z.Z.Z.Z.Z.Z.Z.Z.Z.Z.Z.X.q               # p E / / / < 3 *.*.*.*...V 9 o                     @ z X.v.Z.Z.Z.Z.Z.Z.Z.Z.Z.Z.Z.Z.Z.Z.Z.Z.Z.Z.Z.Z.Z.",
"Z.Z.Z.Z.Z.Z.Z.Z.Z.Z.Z.Z.Z.Z.Z.Z.Z.Z.Z.Z.Z.Z.Z.Z.Z.Z.Z.r.z                 0 H / # r *._ v 3                       - M >.Z.Z.Z.Z.Z.Z.Z.Z.Z.Z.Z.Z.Z.Z.Z.Z.Z.Z.Z.Z.Z.Z.Z.Z.Z.",
"Z.Z.Z.Z.Z.Z.Z.Z.Z.Z.Z.Z.Z.Z.Z.Z.Z.Z.Z.Z.Z.Z.Z.Z.Z.Z.Z.Z.Z.v.G -               <   > >                       4 Y r.Z.Z.Z.Z.Z.Z.Z.Z.Z.Z.Z.Z.Z.Z.Z.Z.Z.Z.Z.Z.Z.Z.Z.Z.Z.Z.Z.Z.",
"Z.Z.Z.Z.Z.Z.Z.Z.Z.Z.Z.Z.Z.Z.Z.Z.Z.Z.Z.Z.Z.Z.Z.Z.Z.Z.Z.Z.Z.Z.Z.Z.( 4                                   p ( g.Z.Z.Z.Z.Z.Z.Z.Z.Z.Z.Z.Z.Z.Z.Z.Z.Z.Z.Z.Z.Z.Z.Z.Z.Z.Z.Z.Z.Z.Z.Z.",
"Z.Z.Z.Z.Z.Z.Z.Z.Z.Z.Z.Z.Z.Z.Z.Z.Z.Z.Z.Z.Z.Z.Z.Z.Z.Z.Z.Z.Z.Z.Z.Z.Z.Z.>.z                       @ z X.v.Z.Z.Z.Z.Z.Z.Z.Z.Z.Z.Z.Z.Z.Z.Z.Z.Z.Z.Z.Z.Z.Z.Z.Z.Z.Z.Z.Z.Z.Z.Z.Z.Z.Z.",
"Z.Z.Z.Z.Z.Z.Z.Z.Z.Z.Z.Z.Z.Z.Z.Z.Z.Z.Z.Z.Z.Z.Z.Z.Z.Z.Z.Z.Z.Z.Z.Z.Z.Z.Z.Z.g.G @           - M >.Z.Z.Z.Z.Z.Z.Z.Z.Z.Z.Z.Z.Z.Z.Z.Z.Z.Z.Z.Z.Z.Z.Z.Z.Z.Z.Z.Z.Z.Z.Z.Z.Z.Z.Z.Z.Z.Z.",
"Z.Z.Z.Z.Z.Z.Z.Z.Z.Z.Z.Z.Z.Z.Z.Z.Z.Z.Z.Z.Z.Z.Z.Z.Z.Z.Z.Z.Z.Z.Z.Z.Z.Z.Z.Z.Z.Z.v.( q q Y r.Z.Z.Z.Z.Z.Z.Z.Z.Z.Z.Z.Z.Z.Z.Z.Z.Z.Z.Z.Z.Z.Z.Z.Z.Z.Z.Z.Z.Z.Z.Z.Z.Z.Z.Z.Z.Z.Z.Z.Z.Z."
};
