/* XPM */
static char *Boulderbadge1708959456[] = {
/* columns rows colors chars-per-pixel */
"85 83 152 2 ",
"   c None",
".  c black",
"X  c #070707",
"o  c #090909",
"O  c #0B0B0B",
"+  c gray5",
"@  c #0E0E0E",
"#  c gray6",
"$  c #131313",
"%  c #151515",
"&  c gray9",
"*  c gray10",
"=  c gray11",
"-  c #1D1D1D",
";  c gray12",
":  c #202020",
">  c gray13",
",  c #222222",
"<  c #232323",
"1  c #272727",
"2  c #2A2A2A",
"3  c #2C2C2C",
"4  c gray18",
"5  c #2F2F2F",
"6  c #313131",
"7  c #343434",
"8  c gray22",
"9  c #393939",
"0  c #3A3A3A",
"q  c gray23",
"w  c #3F3F3F",
"e  c #414141",
"r  c #444444",
"t  c gray27",
"y  c #464646",
"u  c #4B4B4B",
"i  c gray30",
"p  c #4E4E4E",
"a  c gray31",
"s  c #515151",
"d  c #535353",
"f  c gray33",
"g  c #555555",
"h  c #585858",
"j  c #5B5B5B",
"k  c gray36",
"l  c #5D5D5D",
"z  c gray37",
"x  c #5F5F5F",
"c  c #626262",
"v  c gray39",
"b  c #686868",
"n  c DimGray",
"m  c gray42",
"M  c #6C6C6C",
"N  c #6F6F6F",
"B  c gray44",
"V  c #717171",
"C  c #747474",
"Z  c gray46",
"A  c #767676",
"S  c gray47",
"D  c #797979",
"F  c #7C7C7C",
"G  c gray49",
"H  c gray50",
"J  c #808080",
"K  c gray51",
"L  c gray52",
"P  c gray53",
"I  c gray54",
"U  c #8B8B8B",
"Y  c #8D8D8D",
"T  c gray56",
"R  c gray57",
"E  c #939393",
"W  c gray58",
"Q  c #959595",
"!  c gray59",
"~  c #979797",
"^  c gray60",
"/  c gray61",
"(  c gray62",
")  c #9F9F9F",
"_  c gray63",
"`  c #A2A2A2",
"'  c gray64",
"]  c #A4A4A4",
"[  c #A5A5A5",
"{  c gray65",
"}  c #A9A9A9",
"|  c #AAAAAA",
" . c #ACACAC",
".. c gray68",
"X. c #AEAEAE",
"o. c #AFAFAF",
"O. c gray69",
"+. c #B1B1B1",
"@. c gray70",
"#. c #B4B4B4",
"$. c gray71",
"%. c #B6B6B6",
"&. c #B7B7B7",
"*. c gray72",
"=. c gray73",
"-. c #BBBBBB",
";. c #BCBCBC",
":. c gray74",
">. c gray",
",. c gray75",
"<. c #C0C0C0",
"1. c #C1C1C1",
"2. c gray76",
"3. c #C3C3C3",
"4. c gray77",
"5. c #C5C5C5",
"6. c #C6C6C6",
"7. c gray78",
"8. c #C8C8C8",
"9. c gray79",
"0. c #CACACA",
"q. c #CBCBCB",
"w. c gray80",
"e. c #CDCDCD",
"r. c #CECECE",
"t. c gray81",
"y. c gray82",
"u. c LightGray",
"i. c gray83",
"p. c gray84",
"a. c #D8D8D8",
"s. c gray85",
"d. c #DADADA",
"f. c gainsboro",
"g. c #DDDDDD",
"h. c #DFDFDF",
"j. c gray88",
"k. c #E2E2E2",
"l. c gray89",
"z. c gray90",
"x. c gray91",
"c. c #EAEAEA",
"v. c gray93",
"b. c #EFEFEF",
"n. c gray94",
"m. c gray95",
"M. c #F3F3F3",
"N. c #F6F6F6",
"B. c #F9F9F9",
"V. c gray98",
"C. c gray99",
"Z. c white",
/* pixels */
"                                                                                            h.o.H w w a ,.                                                                ",
"                                                                                  b.,.H a # . . . . . . . r t.                                                            ",
"                                                                        b.,.H a ; . . . . . . . . . . . . . . z h.                                                        ",
"                                                                ,.T z < . . . . . . . . . . . . . . . . . . . . . z j.                                                    ",
"                                                      ,.T z 6 . . . . . . . . . . . . . . . . $ 6 ; . 5 . . . . . . . H b.                                                ",
"                                            y.( z 6 . . . . . . . . . . . . . . . . O 1 a b ~ ( ( 1 < =.K % . . . . . . # H b.                                            ",
"                                    o.N w . . . . . . . . . . . . . . . . O 1 a N U ( ( ( ( ( ( ( . t =.=.=.B * . . . . . . # H b.                                        ",
"                                  z . . . . . . . . . . . . . . . 1 r v U ( ( ( ( ( ( ( ( ( ( ( C . C =.=.=.=.=.C O . . . . . . < (                                       ",
"                                ,.. . . . . . . . . . . 5 s B U ( ( ( ( ( ( ( ( ( ( ( ( ( ( ( ( f . ~ =.=.=.=.=.=.o.z O . . . . . . < (                                   ",
"                                5 . . . . . . < t C ^ =.=.=.=.{ ( ( ( ( ( ( ( ( ( ( ( ( ( ( ( ( 6 O =.=.=.=.=.=.=.=.=.,.B # . . . . . . ; o.                              ",
"                              T . . . . . b =.=.=.=.=.=.=.=.=.{ ( ( ( ( ( ( ( ( ( ( ( ( ( ( ( ( % 5 =.=.=.=.=.=.=.=.=.t.z.i.v . . . . . . . w ,.                          ",
"                            b.# . . . 8 < % o.=.=.=.=.=.=.=.=.{ ( ( ( ( ( ( ( ( ( ( ( ( ( ( ( E . z =.=.=.=.=.=.=.=.=.t.j.z.j.6.f . . . . . . . w 2.                      ",
"                            N . . . X H _ O t =.=.=.=.=.=.=.=.{ ( ( ( ( ( ( ( ( ( ( ( ( ( ( ( N . H =.=.=.=.=.=.=.=.=.t.z.z.j.z.z.6.f . . . . . . . a h.                  ",
"                          t.. . . . 8 B +.C . H =.=.=.=.=.=.=._ ( ( ( ( ( ( ( ( ( ( ( ( ( ( ( a . o.=.=.=.=.=.=.=.=.=.t.j.z.z.j.j.z.z.$.8 . . . . . . . z b.              ",
"                          w . . . # b B ~ =.8 # _ =.=.=.=.=.=.( ( ( ( ( ( ( ( ( ( ( ( ( ( ( ( 1 % =.=.=.=.=.=.=.=.=.=.t.j.z.z.j.j.z.z.j.z.| 8 . . . . . . w               ",
"                        o.. . . . a B B B =.o.% 5 =.=.=.=.=.=.( ( ( ( ( ( ( ( ( ( ( ( ( ( ( ( . t =.=.=.=.=.=.=.=.=.=.t.z.z.j.z.z.j.z.z.j.z.j.| 2 . . . . . h.            ",
"                      b.; . . . ; N B B B ( =.U . b =.=.=.=.=.( ( ( ( ( ( ( ( ( ( ( ( ( ( ( K . b =.=.=.=.=.=.=.=.=.=.t.j.z.j.z.z.z.j.z.z.j.z.j.z.2 . . . . o.            ",
"                      H . . . . h N B B B L =.=.s . ~ =.=.=.=.( ( ( ( ( ( ( ( ( ( ( ( ( ( ( h . ~ =.=.=.=.=.=.=.=.=.=.s.z.j.j.z.j.z.z.j.j.z.j.i.8 . * . . . H             ",
"                    h.# . . . 6 B B B B N N o.=.=.< < o.=.=.$.( ( ( ( ( ( ( ( ( ( ( ( ( o.t.f . ,.=.=.=.=.=.=.=.=.=.=.s.j.z.z.j.z.j.j.z.z.j.=.* O U z . . . w             ",
"                    a . . . X b B B B B B N U =.=.~ O s =.=.+.( ( ( ( ( ( ( ( ( ( ( o.y.z.j.2 8 y.=.=.=.=.=.=.=.=.=.=.i.z.j.z.z.z.j.z.z.z.T # 5 9.=.U . . . #             ",
"                  ,.. . . . w B B B B B B B B $.=.=.b . H =.+.( ( ( ( ( ( ( ( ( $.s.z.z.z.i.. v z.,.=.=.=.=.=.=.=.=.=.s.z.j.z.z.z.j.z.j.f . z b.B.=.o.. . . . y.          ",
"                  5 . . . % B B B B B B B B B ^ =.=.=.8 O o.$.( ( ( ( ( ( ( $.s.z.y.| B 7 # . 2 6.y.=.=.=.=.=.=.=.=.=.s.j.z.z.j.z.j.i.2 . ( Z.Z.Z.2.=.< . . . (           ",
"                T . . . . f B B B B B B B B B D =.=.=.o.O 5 +.( ( _ ( _ ,.$.T f 2 . . . ; a N # . f { =.=.=.=.=.=.=.=.i.z.j.j.z.j.=.# # y.Z.Z.Z.Z.y.=.t . . . N           ",
"              b.# . . . < B B B B B B B B B B B | =.=.=.U . h ( ~ C f 7 # . . . 1 s o.h.Z.Z.Z.9.a . O z o.=.=.=.=.=.=.s.z.z.j.z.H . 5 b.Z.Z.Z.Z.Z.z.=.b . . . w           ",
"              N . . . X v B B B B B B B B B B D =.=.=.=.=.s . ; . . . $ 6 f C _ ( t.Z.Z.Z.Z.Z.y.y.+.6 . # C =.=.=.=.=.s.j.j.i.f . N Z.Z.Z.Z.Z.Z.Z.m.=.U . . . .           ",
"            t.. . . . 8 B B B B B B B B B B B U =.=.=.=.=.z . < r N U ( ( ( ( ( _ b.Z.Z.Z.Z.m.y.y.y.y.~ ; . % H =.=.=.s.z.2.2 $ ( Z.Z.Z.Z.Z.Z.Z.Z.Z.,.=.. . . . t.        ",
"            w . . . # b B B B B B B B B B B N _ =.=.=.=._ . # _ ( ( ( ( ( ( ( ( =.Z.Z.Z.Z.Z.j.y.y.y.y.y.t.D $ . 5 U =.s.{ # ; t.Z.Z.Z.Z.Z.Z.Z.Z.Z.Z.9.=.< . . . (         ",
"          o.. . . . a B B B B B B B B B B B C =.=.=.=.=.5 . K ( ( ( ( ( ( ( ( _ i.Z.Z.Z.Z.Z.i.y.y.y.y.y.y.y.9.z O . 7 D . w b.Z.Z.Z.Z.Z.Z.Z.Z.Z.Z.Z.h.=.t . . . B         ",
"        b.; . . . ; B B B B B B B B B B B B T =.=.=.=.H . 8 ,.( ( ( ( ( ( ( ( =.z.Z.Z.Z.Z.b.y.y.y.y.y.y.y.y.y.y.=.h . . N Z.Z.Z.Z.Z.Z.Z.Z.Z.Z.Z.Z.Z.b.=.b . . . w         ",
"        H . . . . h B B B B B B B B B B B B ( =.=.=.o.% . =._ ( ( ( ( ( ( ( ( 9.m.Z.Z.Z.Z.h.y.y.y.y.y.y.y.y.y.y.y.y.D . ,.Z.Z.Z.Z.Z.Z.Z.Z.Z.Z.Z.Z.Z.B.=.U . . . .         ",
"      h.# . . . 6 B B B B B B B B B B B B B $.=.=.=.z . v 9.( ( ( ( ( ( ( ( +.y.Z.Z.Z.Z.Z.t.y.y.y.y.y.y.y.y.y.y.y.9.~ . T Z.Z.Z.Z.Z.Z.Z.Z.Z.Z.Z.Z.Z.Z.6.=.. . . . t.      ",
"      a . . . X b B B B B B B B B B B B B L =.=.=._ . # i.o.( ( ( ( ( ( ( ( 9.j.Z.Z.Z.Z.b.y.y.y.y.y.y.y.y.y.y.y.y.,.=.. z Z.Z.Z.Z.Z.Z.Z.Z.Z.Z.Z.Z.Z.Z.y.=.< . . . T       ",
"    ,.. . . . w B B B B B B B B B B B B N ( =.=.=.8 . T s.( ( ( ( ( ( ( ( o.y.x.Z.Z.Z.Z.h.y.y.y.y.y.y.y.y.y.y.t.6.=.=.5 ; Z.Z.Z.Z.Z.Z.Z.Z.Z.Z.Z.Z.Z.Z.z.=.s . . . z       ",
"    5 . . . % B B B B B B B B B B B B B B o.=.=.T . 2 z.,.( ( ( ( ( ( ( ( 6.y.B.Z.Z.Z.B.y.y.y.y.y.y.y.y.y.y.y.t.=.=.=.z . b.Z.Z.Z.Z.Z.Z.Z.Z.Z.Z.Z.Z.Z.M.,.B . . . 5       ",
"  T . . . . f B B B B B B B B B B B B B H =.=.=.% . | j.{ ( ( ( ( ( ( ( | y.i.Z.Z.Z.Z.b.y.y.y.y.y.y.y.y.y.y.y.,.=.=.=.T . ,.Z.Z.Z.Z.Z.Z.Z.Z.Z.Z.Z.Z.Z.Z.,.~ . . . .       ",
"b.# . . . < B B B B B B B B B B B B N N ^ =.=.z . f j.t.( ( ( ( ( ( ( ( 2.y.z.Z.Z.Z.Z.h.y.y.y.y.y.y.y.y.y.y.6.=.=.=.2.h.. H Z.Z.Z.Z.Z.Z.Z.Z.Z.Z.Z.Z.Z.Z.t.=.. . . . ,.    ",
"H . . . X v B B B B B B N N B B B B B B o.=._ # # i.z.+.( ( ( ( ( ( ( _ y.y.m.Z.Z.Z.B.y.y.y.y.y.y.y.y.y.y.t.=.=.=.=.z.Z.# a Z.Z.Z.Z.Z.Z.Z.Z.Z.Z.Z.Z.Z.Z.h.=.5 . . . T     ",
"w . . . . . . % ; < 8 8 a f h B B B B D =.=.8 . H j.s._ ( ( ( ( ( ( ( ,.y.y.B.Z.Z.Z.b.y.y.y.y.y.y.y.y.y.t.,.=.=.=.,.B.Z.w ; Z.Z.Z.Z.Z.Z.Z.Z.Z.Z.Z.Z.Z.Z.x.=.s . . . z     ",
"z . . . . 8 7 < ; % . . . . . . . % ; 2 z s . 2 j.z.2.( ( ( ( ( ( ( _ y.t.h.Z.Z.Z.Z.h.y.y.y.y.y.y.y.y.y.6.=.=.=.=.h.Z.Z.H . b.Z.Z.Z.Z.Z.Z.Z.Z.Z.Z.Z.Z.Z.Z.=.C . . . 5     ",
"2.. . . . a B N N B B B z f a 8 8 < * % . . . ( z.j.{ ( ( ( ( ( ( ( $.y.y.x.Z.Z.Z.Z.y.y.y.y.y.y.y.y.y.t.=.=.=.=.=.B.Z.Z.o.. ,.Z.Z.Z.Z.Z.Z.Z.Z.Z.Z.Z.Z.Z.Z.6.~ . . . .     ",
"  ; . . . 2 B B B B B B B B B B B B B B B v . v j.t.( ( ( ( ( ( ( _ t.y.y.M.Z.Z.Z.b.y.y.y.y.y.y.y.y.y.2.=.=.=.=.y.Z.Z.Z.h.. H Z.Z.Z.Z.Z.Z.Z.Z.Z.Z.Z.Z.Z.Z.i.=.. . . . 2.  ",
"  N . . . . b B B B B B B B B B B B B B B B $ ; z.+.( ( ( ( ( ( ( $.y.y.y.Z.Z.Z.Z.s.y.y.y.y.y.y.y.y.9.=.=.=.=.=.M.Z.Z.Z.Z.; w Z.Z.Z.Z.Z.Z.Z.Z.Z.Z.Z.Z.Z.Z.z.=.5 . . . T   ",
"  h.. . . . t B B B B B B B B B B B B B B B t . E ( ( ( ( ( ( ( ( 9.y.y.j.Z.Z.Z.B.y.y.y.y.y.y.y.y.t.=.=.=.=.=.t.Z.Z.Z.Z.Z.a # Z.Z.Z.Z.Z.Z.Z.Z.Z.Z.Z.Z.Z.Z.M.=.s . . . a   ",
"    5 . . . ; B B B B B B B B B B B B B B B b . w ( ( ( ( ( ( ( +.y.y.y.b.Z.Z.Z.x.y.y.y.y.y.y.y.y.2.=.=.=.=.=.b.Z.Z.Z.Z.Z.H . o.b.Z.Z.Z.Z.Z.Z.Z.Z.Z.Z.Z.Z.Z.2.K . . . ;   ",
"    T . . . . v B B B B B B B B B B B B B B B 2 . E ( ( ( ( ( ( 9.y.y.y.B.Z.Z.Z.s.y.y.y.y.y.y.y.9.=.=.=.=.=.9.Z.Z.Z.Z.Z.Z.z . . . . 6 w H T ,.h.Z.Z.Z.Z.Z.Z.t._ . . . . b.",
"    b.. . . . w B B B B B B B B B B B B B B N a . v ( ( ( ( ( | y.y.y.s.Z.Z.Z.B.y.y.y.y.y.y.y.t.,.=.=.=.=.=.z.Z.Z.Z.Z.Z.,.. * ( C b r 6 . . . . . ; w N H ,.+.=.O . . . ,.",
"      s . . . % B B B B B B B B B B B B B B B B # ; ( ( ( ( ( 2.y.y.y.z.Z.Z.Z.x.y.y.y.y.y.y.y.6.=.=.=.=.=.2.Z.Z.Z.Z.Z.Z.5 . ^ y.y.y.y.y.y.2.( K v a 7 # . . . . . . . . H ",
"      ( . . . . h B B B B B B B B B B B B B B B 6 . U ( ( ( | y.y.y.y.M.Z.Z.Z.s.y.y.y.y.y.y.9.=.=.=.=.=.=.j.Z.Z.Z.Z.Z.T . r y.y.y.y.y.y.y.y.y.y.y.y.y.y.y.( L t . . . . H ",
"      b.$ . . . 6 B B B B B B B B B B B B B B B v . t ( ( ( ,.y.y.y.y.Z.Z.Z.B.y.y.y.y.y.y.y.,.=.=.=.=.=.,.B.Z.Z.Z.Z.b.# # $.y.y.y.y.y.y.y.y.y.y.y.y.y.y.y.y.,.t . . . # b.",
"        z . . . # B B B B B B B B B B B B B B B B % $ ( ( { t.y.y.y.h.Z.Z.Z.x.y.y.y.y.y.y.2.=.=.=.=.=.=.h.Z.Z.Z.Z.Z.z . v y.y.y.y.y.y.y.y.y.y.y.y.y.y.y.y.9.U . . . . T   ",
"        o.. . . . a N B B B B B B B B B B B B B B t . N ( ,.y.y.y.y.b.Z.Z.Z.s.y.y.y.y.y.t.=.=.=.=.=.=.=.M.Z.Z.Z.Z.,.. ; y.y.y.y.y.y.y.y.y.y.y.y.y.y.y.y.y.6.< . . . ;     ",
"          ; . . . 2 N B B B B B B B B B B B B B B b . 8 _ t.y.y.y.y.M.Z.Z.B.y.y.y.y.y.t.,.=.=.=.=.=.=.y.Z.Z.Z.Z.Z.5 . ,.s.y.y.y.y.y.y.y.y.y.y.y.y.y.y.y.t.N . . . . ,.    ",
"          N . . . O b B B B B B B B B B B B B B B B 2 . o.t.y.y.y.i.Z.Z.Z.z.y.y.y.y.y.6.=.=.=.=.=.=.=.M.Z.Z.Z.Z.T . a Z.z.y.y.y.y.y.y.y.y.y.y.y.y.y.y.y.2.# . . . a       ",
"          t.. . . . t B B B B B B B B B B B B B B B a . K y.y.y.y.j.Z.Z.Z.i.y.y.y.y.t.=.=.=.=.=.=.=.9.Z.Z.Z.Z.m.# # h.Z.B.y.y.y.y.y.y.y.y.y.y.y.y.y.y.y.h . . . # h.      ",
"            5 . . . < B B B B B B B B B B B B B B B B # 1 t.t.y.y.b.Z.Z.M.y.y.y.y.t.,.=.=.=.=.=.=.=.b.Z.Z.Z.Z.z . H Z.Z.Z.s.y.y.y.y.y.y.y.y.y.y.y.y.y.| . . . . H         ",
"            T . . . . v B B B B B B B B B B B B B B b $ . # v $.y.Z.Z.Z.z.y.y.y.y.6.=.=.=.=.=.=.=.6.Z.Z.Z.Z.,.. ; Z.Z.Z.Z.x.y.y.y.y.y.y.y.y.y.y.y.y.y.6 . . . < b.        ",
"            h.. . . . w B B B B B B B B B B B B B v % O f 1 . . s t.Z.Z.i.y.y.y.t.=.=.=.=.=.=.=.=.z.Z.Z.t.T ; . ,.Z.Z.Z.Z.B.y.y.y.y.y.y.y.y.y.y.y.y.K . . . . o.          ",
"              s . . . % B B B B B B B B B B B B h # O K ( ( K 8 . . 8 E t.y.y.y.2.=.=.=.=.=.=.=.2.t.N ; . . $ . ( Z.Z.Z.Z.Z.s.y.y.y.y.y.y.y.y.y.y.2.* . . . w             ",
"              ( . . . . h B B B B B B B B B B h O ; U ( ( ( ( ( U a O . $ v ,.6.=.=.=.=.=.=.H t % . . < b =.h.w . t.Z.Z.Z.Z.x.y.y.y.y.y.y.y.y.y.y.b . . . . h.            ",
"              b.# . . . 6 B B B B B B B B B h O ; E ( ( ( ( ( ( ( ( ( v ; . O t _ =.o.H t O . . 5 b _ =.y.j.j.s.< # b.Z.Z.Z.B.y.y.y.y.y.y.y.y.y.$.. . . . N               ",
"                z . . . $ B B B B B B B N h X ; E ( ( ( ( ( ( ( ( ( ( ( ( C 6 . . < . . . 8 C o.=.=.=.,.j.z.z.j.6.O w Z.Z.Z.Z.h.y.y.y.y.y.y.y.y.7 . . . $ b.              ",
"                +.. . . . f B B B B B B f X ; E ( ( ( ( ( ( ( ( ( ( ( ( ( ( ( U w . 8 K o.=.=.=.=.=.=.y.j.z.j.z.j._ . N Z.Z.Z.x.y.y.y.y.y.y.y.( . . . . (                 ",
"                  # . . . 2 B B B B N u . 1 E ( ( ( ( ( ( ( ( ( ( ( ( ( ( ( ( ( C . U =.=.=.=.=.=.=.,.j.z.j.j.z.z.j.K . ( Z.Z.Z.y.y.y.y.y.y.y.* . . . r                   ",
"                  N . . . X B B B B t . 8 ( ( ( ( ( ( ( ( ( ( ( ( ( ( ( ( ( ( ( C . U =.=.=.=.=.=.=.i.z.z.j.z.z.j.z.j.f # t.Z.Z.h.y.y.y.y.y.b . . . . ,.                  ",
"                  t.. . . . t B B t . w ( ( ( ( ( ( ( ( ( ( ( ( ( ( ( ( ( ( ( ( v . _ =.=.=.=.=.=.2.j.z.z.j.z.z.j.z.z.i.2 ; b.Z.b.y.y.y.y.$.# . . . z                     ",
"                    ; . . . < B t . 8 ( ( ( ( ( ( ( ( ( ( ( ( ( ( ( ( ( ( ( ( ( a . =.=.=.=.=.=.=.s.z.j.j.z.z.j.z.j.j.z.6.# w Z.B.y.y.y.y.a . . . # m.                    ",
"                    T . . . . 6 . w ( ( ( ( ( ( ( ( ( ( ( ( ( ( ( ( ( ( ( ( ( ( a . =.=.=.=.=.=.6.j.z.z.z.j.j.z.z.z.z.z.j.o.. N Z.h.y.y.( . . . . T                       ",
"                    h.. . . . . h ( ( ( ( ( ( ( ( ( ( ( ( ( ( ( ( ( ( ( ( ( ( ( a . =.=.=.=.=.=.i.z.j.z.z.z.j.z.j.z.j.j.z.j.H . ( b.y.y.1 . . . ;                         ",
"                      r . . . . 1 N ( ( ( ( ( ( ( ( ( ( ( ( ( ( ( ( ( ( ( ( ( ( a . =.=.=.=.=.9.z.j.j.z.j.z.z.j.z.j.z.z.j.z.z.f # t.i.B . . . . ,.                        ",
"                      ( . . . . . . $ h ~ ( ( ( ( ( ( ( ( ( ( ( ( ( ( ( ( ( ( ( a . =.=.=.=.=.h.j.z.z.j.z.j.j.z.j.z.z.j.z.z.j.i.2 5 6.# . . . a                           ",
"                        H . . . . . . . X 8 U ( ( ( ( ( ( ( ( ( ( ( ( ( ( ( ( ( a . =.=.=.=.6.z.z.z.z.z.z.z.z.z.j.z.z.j.j.z.j.z.=.# # . . . # h.                          ",
"                          h.H # . . . . . . . 6 C ( ( ( ( ( ( ( ( ( ( ( ( ( ( ( 1 5 =.=.=.,.j.j.z.j.j.z.j.j.z.j.z.j.z.z.j.z.j.( f * . . . . H                             ",
"                              b.( ; . . . . . . . % v E ( ( ( ( ( ( ( ( ( ( ( ( 1 5 =.=.=.t.z.j.j.j.z.j.j.z.j.j.z.j.z.i.T t # . . . . . . ; b.                            ",
"                                    ,.s . . . . . . . O a U ( ( ( ( ( ( ( ( ( ( 1 5 =.=.=.j.z.z.z.z.z.z.z.j.z.z.6.H 8 . . . . . . . . . . o.                              ",
"                                        h.z # . . . . . . . 8 C ( ( ( ( ( ( ( ( 1 5 =.=.t.j.j.j.z.j.j.z.j.=.v 2 . . . . . . . . . . . 5 t.                                ",
"                                            b.T < . . . . . . . ; v ( ( ( ( ( ( 1 5 =.=.=.=.2.6.9.t.~ f ; . . . . . . . . . . . s ( h.                                    ",
"                                                  o.w . . . . . . . % a ~ ( ( ( 1 5 =.=.,.=.o.C 8 # . . . . . . . . . . # z +.b.                                          ",
"                                                      t.v . . . . . . . . 8 K ( $ t =._ v 5 . . . . . . . . . . . < N ,.                                                  ",
"                                                          b.H ; . . . . . . . 1 . < < . . . . . . . . . . . 5 T t.                                                        ",
"                                                                ( 5 . . . . . . . . . . . . . . . . . a ( j.                                                              ",
"                                                                    2.z . . . . . . . . . . . # z o.b.                                                                    ",
"                                                                        h.H $ . . . . . ; N ,.                                                                            ",
"                                                                            b.( w w T t.                                                                                  "
};
